
Release info:

General
Format                                   : Matroska
Format version                           : Version 2
File size                                : 693 MiB
Duration                                 : 1h 47mn
Overall bit rate mode                    : Variable
Overall bit rate                         : 900 Kbps


Video
ID                                       : 1
Format                                   : MPEG-4 Visual
Format profile                           : Advanced Simple@L5
Format settings, BVOP                    : Yes
Format settings, QPel                    : No
Format settings, GMC                     : No warppoints
Format settings, Matrix                  : Default (MPEG)
Codec ID                                 : V_MS/VFW/FOURCC / XVID
Codec ID/Hint                            : XviD
Duration                                 : 1h 47mn
Bit rate                                 : 748 Kbps
Width                                    : 624 pixels
Height                                   : 352 pixels
Display aspect ratio                     : 16:9
Frame rate mode                          : Constant
Frame rate                               : 23.976 fps
Color space                              : YUV
Chroma subsampling                       : 4:2:0
Bit depth                                : 8 bits
Scan type                                : Progressive
Compression mode                         : Lossy
Bits/(Pixel*Frame)                       : 0.142
Stream size                              : 576 MiB (83%)
Language                                 : English
Default                                  : Yes
Forced                                   : No

Audio
ID                                       : 2
Format                                   : MPEG Audio
Format version                           : Version 1
Format profile                           : Layer 3
Mode                                     : Joint stereo
Mode extension                           : MS Stereo
Muxing mode                              : Header stripping
Codec ID                                 : A_MPEG/L3
Codec ID/Hint                            : MP3
Duration                                 : 1h 47mn
Bit rate mode                            : Variable
Bit rate                                 : 134 Kbps
Nominal bit rate                         : 160 Kbps
Channel(s)                               : 2 channels
Sampling rate                            : 48.0 KHz
Compression mode                         : Lossy
Stream size                              : 103 MiB (15%)
Language                                 : English
Default                                  : Yes
Forced                                   : No


Source:
credit to original movie ripper WiDE (Thanks)

IMDB Info:

A handful of unforgettable characters set out on a 100-day quest to tame a totally wild mustang for a Texas competition in this stunning and poignant documentary... 

Directors: Alex Dawson, Greg Gricus

Genres: Documentary | Western
 
http://www.imdb.com/title/tt2113113/

Screen Shot:
 
http://www.shotpix.com/images/12402374474705788576.png 
http://www.shotpix.com/images/88708469625920313018.png 
http://www.shotpix.com/images/79548092714777234855.png 
http://www.shotpix.com/images/38249728195537127406.png 
http://www.shotpix.com/images/15187697402106566261.png 
http://www.shotpix.com/images/60950153407449185007.png